<svg width="25" height="25" viewBox="0 0 25 25" fill="none" xmlns="http://www.w3.org/2000/svg">
<path d="M22.9173 12.5C22.9173 18.253 18.2536 22.9167 12.5007 22.9167C6.74768 22.9167 2.08398 18.253 2.08398 12.5C2.08398 6.74707 6.74768 2.08337 12.5007 2.08337C18.2536 2.08337 22.9173 6.74707 22.9173 12.5Z" fill="#3D3F46"/>
<path fill-rule="evenodd" clip-rule="evenodd" d="M6.85038 6.84977C7.09445 6.60569 7.49018 6.60569 7.73426 6.84977L12.5007 11.6162L17.267 6.84977C17.5111 6.60569 17.9068 6.60569 18.1509 6.84977C18.395 7.09384 18.395 7.48957 18.1509 7.73365L13.3845 12.5L18.1509 17.2664C18.395 17.5105 18.395 17.9062 18.1509 18.1503C17.9068 18.3944 17.5111 18.3944 17.267 18.1503L12.5007 13.3839L7.73426 18.1503C7.49018 18.3944 7.09445 18.3944 6.85038 18.1503C6.6063 17.9062 6.6063 17.5105 6.85038 17.2664L11.6168 12.5L6.85038 7.73365C6.6063 7.48957 6.6063 7.09384 6.85038 6.84977Z" fill="#F64848"/>
<path d="M22.9173 12.5C22.9173 18.253 18.2536 22.9167 12.5007 22.9167C6.74768 22.9167 2.08398 18.253 2.08398 12.5C2.08398 6.74707 6.74768 2.08337 12.5007 2.08337C18.2536 2.08337 22.9173 6.74707 22.9173 12.5Z" stroke="#F64848" stroke-linecap="round"/>
<path fill-rule="evenodd" clip-rule="evenodd" d="M6.85038 6.84977C7.09445 6.60569 7.49018 6.60569 7.73426 6.84977L12.5007 11.6162L17.267 6.84977C17.5111 6.60569 17.9068 6.60569 18.1509 6.84977C18.395 7.09384 18.395 7.48957 18.1509 7.73365L13.3845 12.5L18.1509 17.2664C18.395 17.5105 18.395 17.9062 18.1509 18.1503C17.9068 18.3944 17.5111 18.3944 17.267 18.1503L12.5007 13.3839L7.73426 18.1503C7.49018 18.3944 7.09445 18.3944 6.85038 18.1503C6.6063 17.9062 6.6063 17.5105 6.85038 17.2664L11.6168 12.5L6.85038 7.73365C6.6063 7.48957 6.6063 7.09384 6.85038 6.84977Z" stroke="#F64848" stroke-linecap="round"/>
</svg>
