<svg width="24" height="24" viewBox="0 0 24 24" fill="none" xmlns="http://www.w3.org/2000/svg">
<path d="M17.0879 16.8505L16.4907 16.7921L17.0879 16.8505ZM6.41214 16.8505L5.81499 16.9089L6.41214 16.8505ZM8.16481 20.724L7.90396 21.2644H7.90396L8.16481 20.724ZM6.95288 19.6032L6.43565 19.9073H6.43565L6.95288 19.6032ZM16.5471 19.6032L17.0644 19.9073L17.0644 19.9073L16.5471 19.6032ZM15.3352 20.724L15.596 21.2644H15.596L15.3352 20.724ZM4 6.36C3.66863 6.36 3.4 6.62863 3.4 6.96C3.4 7.29137 3.66863 7.56 4 7.56V6.36ZM19.5 7.56C19.8314 7.56 20.1 7.29137 20.1 6.96C20.1 6.62863 19.8314 6.36 19.5 6.36V7.56ZM13.0016 3.0736L13.1601 2.4949V2.4949L13.0016 3.0736ZM14.4962 4.60095L15.0765 4.44878L14.4962 4.60095ZM10.4984 3.0736L10.6569 3.6523L10.4984 3.0736ZM9.00384 4.60095L9.58422 4.75313L9.00384 4.60095ZM14.8131 10.2584C14.8453 9.92864 14.6041 9.63512 14.2743 9.60285C13.9445 9.57058 13.651 9.81177 13.6188 10.1416L14.8131 10.2584ZM12.9142 17.3416C12.8819 17.6714 13.1231 17.9649 13.4529 17.9971C13.7827 18.0294 14.0762 17.7882 14.1085 17.4584L12.9142 17.3416ZM9.88124 10.1416C9.84897 9.81177 9.55545 9.57058 9.22566 9.60285C8.89586 9.63512 8.65467 9.92864 8.68694 10.2584L9.88124 10.1416ZM9.39149 17.4584C9.42376 17.7882 9.71727 18.0294 10.0471 17.9971C10.3769 17.9649 10.6181 17.6714 10.5858 17.3416L9.39149 17.4584ZM12.6011 21V20.4H10.8989V21V21.6H12.6011V21ZM10.8989 21V20.4C10.1685 20.4 9.6558 20.3996 9.25335 20.3674C8.85866 20.3359 8.61792 20.2765 8.42567 20.1837L8.16481 20.724L7.90396 21.2644C8.28331 21.4475 8.68878 21.5261 9.1578 21.5636C9.61907 21.6004 10.1876 21.6 10.8989 21.6V21ZM6.41214 16.8505L5.81499 16.9089C5.88582 17.6328 5.94181 18.2092 6.02327 18.6727C6.10594 19.1432 6.22178 19.5435 6.43565 19.9073L6.95288 19.6032L7.47012 19.2991C7.35841 19.1091 7.27561 18.866 7.20516 18.4651C7.1335 18.0572 7.08191 17.5342 7.00929 16.7921L6.41214 16.8505ZM8.16481 20.724L8.42567 20.1837C8.03054 19.993 7.69746 19.6858 7.47012 19.2991L6.95288 19.6032L6.43565 19.9073C6.78182 20.4961 7.29217 20.969 7.90396 21.2644L8.16481 20.724ZM17.0879 16.8505L16.4907 16.7921C16.4181 17.5342 16.3665 18.0572 16.2948 18.4651C16.2244 18.866 16.1416 19.1091 16.0299 19.2991L16.5471 19.6032L17.0644 19.9073C17.2782 19.5435 17.3941 19.1432 17.4767 18.6727C17.5582 18.2092 17.6142 17.6328 17.685 16.9089L17.0879 16.8505ZM12.6011 21V21.6C13.3124 21.6 13.8809 21.6004 14.3422 21.5636C14.8112 21.5261 15.2167 21.4475 15.596 21.2644L15.3352 20.724L15.0743 20.1837C14.8821 20.2765 14.6413 20.3359 14.2466 20.3674C13.8442 20.3996 13.3315 20.4 12.6011 20.4V21ZM16.5471 19.6032L16.0299 19.2991C15.8025 19.6858 15.4695 19.993 15.0743 20.1837L15.3352 20.724L15.596 21.2644C16.2078 20.969 16.7182 20.4961 17.0644 19.9073L16.5471 19.6032ZM14.5682 5.88H13.9682V6.6H14.5682H15.1682V5.88H14.5682ZM8.93182 6.6H9.53182V5.88H8.93182H8.33182V6.6H8.93182ZM11.75 3V3.6C12.4446 3.6 12.6717 3.60537 12.8431 3.6523L13.0016 3.0736L13.1601 2.4949C12.7939 2.39463 12.3658 2.4 11.75 2.4V3ZM14.5682 5.88H15.1682C15.1682 5.24829 15.1731 4.81715 15.0765 4.44878L14.4962 4.60095L13.9158 4.75313C13.9632 4.93411 13.9682 5.17255 13.9682 5.88H14.5682ZM13.0016 3.0736L12.8431 3.6523C13.361 3.7941 13.7734 4.21019 13.9158 4.75313L14.4962 4.60095L15.0765 4.44878C14.828 3.50092 14.101 2.75256 13.1601 2.4949L13.0016 3.0736ZM11.75 3V2.4C11.1342 2.4 10.7061 2.39463 10.3399 2.4949L10.4984 3.0736L10.6569 3.6523C10.8283 3.60537 11.0554 3.6 11.75 3.6V3ZM8.93182 5.88H9.53182C9.53182 5.17255 9.53677 4.93411 9.58422 4.75313L9.00384 4.60095L8.42346 4.44878C8.32687 4.81715 8.33182 5.24829 8.33182 5.88H8.93182ZM10.4984 3.0736L10.3399 2.4949C9.39901 2.75256 8.67198 3.50092 8.42346 4.44878L9.00384 4.60095L9.58422 4.75313C9.72658 4.21019 10.139 3.7941 10.6569 3.6523L10.4984 3.0736ZM14.2159 10.2L13.6188 10.1416L12.9142 17.3416L13.5114 17.4L14.1085 17.4584L14.8131 10.2584L14.2159 10.2ZM9.28409 10.2L8.68694 10.2584L9.39149 17.4584L9.98864 17.4L10.5858 17.3416L9.88124 10.1416L9.28409 10.2ZM18.0557 6.96V7.56H19.5V6.96V6.36H18.0557V6.96ZM18.0557 6.96L17.4585 6.90157L16.4907 16.7921L17.0879 16.8505L17.685 16.9089L18.6528 7.01843L18.0557 6.96ZM14.5682 6.96V7.56H18.0557V6.96V6.36H14.5682V6.96ZM14.5682 6.6H13.9682V6.96H14.5682H15.1682V6.6H14.5682ZM8.93182 6.96V7.56H14.5682V6.96V6.36H8.93182V6.96ZM8.93182 6.6H8.33182V6.96H8.93182H9.53182V6.6H8.93182ZM4 6.96V7.56H5.44432V6.96V6.36H4V6.96ZM5.44432 6.96V7.56H8.93182V6.96V6.36H5.44432V6.96ZM6.41214 16.8505L7.00929 16.7921L6.04147 6.90157L5.44432 6.96L4.84717 7.01843L5.81499 16.9089L6.41214 16.8505Z" fill="#F74848"/>
</svg>
