<svg width="24" height="24" viewBox="0 0 24 24" fill="none" xmlns="http://www.w3.org/2000/svg">
<path d="M13.3956 5.25339L13.7572 4.89185C15.0184 3.63062 15.649 3 16.4327 3C17.2163 3 17.8469 3.63062 19.1082 4.89185C20.3694 6.15308 21 6.7837 21 7.56734C21 8.35097 20.3694 8.98159 19.1082 10.2428L18.7466 10.6044M13.3956 5.25339L4.11271 14.5363C3.55555 15.0935 3.27698 15.3721 3.13281 15.727C2.98865 16.0819 2.99405 16.4758 3.00485 17.2636L3.03006 19.1042C3.04197 19.9738 3.04793 20.4087 3.31963 20.6804C3.59133 20.9521 4.02616 20.958 4.89582 20.9699L6.73636 20.9952C7.52422 21.006 7.91816 21.0113 8.27305 20.8672C8.62794 20.723 8.90651 20.4444 9.46367 19.8873L18.7466 10.6044M13.3956 5.25339L18.7466 10.6044M13.4211 20.9952L21 20.9952" stroke="white" stroke-width="1.2" stroke-linecap="round"/>
</svg>
