<svg width="24" height="24" viewBox="0 0 24 24" fill="none" xmlns="http://www.w3.org/2000/svg">
<path d="M10.1355 3.47822L4.38315 7.01588C2.53895 8.15009 2.53895 10.6886 4.38315 11.8228L10.1355 15.3604C11.1675 15.9996 12.8683 15.9996 13.9003 15.3604L19.624 11.8228C21.4587 10.6886 21.4587 8.1591 19.624 7.02488L13.9003 3.48722C12.8683 2.8391 11.1675 2.8391 10.1355 3.47822Z" stroke="#D3F686" stroke-width="1.2" stroke-linecap="round" stroke-linejoin="round"/>
<path d="M5.9119 12.975L5.90234 17.1968C5.90234 18.34 6.83877 19.5642 7.98542 19.9243L11.0336 20.8785C11.5591 21.0405 12.4287 21.0405 12.9638 20.8785L16.012 19.9243C17.1586 19.5642 18.095 18.34 18.095 17.1968V13.02" stroke="#D3F686" stroke-width="1.2" stroke-linecap="round" stroke-linejoin="round"/>
<path d="M20.9805 14.7033V9.30231" stroke="#D3F686" stroke-width="1.2" stroke-linecap="round" stroke-linejoin="round"/>
</svg>
