<svg width="24" height="24" viewBox="0 0 24 24" fill="none" xmlns="http://www.w3.org/2000/svg">
<path d="M6.80769 7.63636L9.69586 9.65906C10.8127 10.4412 11.3712 10.8323 12 10.8323C12.6288 10.8323 13.1873 10.4412 14.3041 9.65906L17.1923 7.63636M10.3385 20H14.3538C16.6802 20 17.8434 20 18.732 19.5244C19.5136 19.106 20.149 18.4385 20.5473 17.6174C21 16.684 21 15.462 21 13.0182V10.9818C21 8.53795 21 7.31602 20.5473 6.38259C20.149 5.56152 19.5136 4.89396 18.732 4.47561C17.8434 4 16.6802 4 14.3538 4H10.3385C8.01209 4 6.1566 4 5.26804 4.47561C4.48644 4.89396 3.85099 5.56152 3.45274 6.38259C3 7.31602 3 8.53795 3 10.9818V13.0182C3 15.462 3 16.684 3.45274 17.6174C3.85099 18.4385 4.48644 19.106 5.26804 19.5244C6.1566 20 8.01209 20 10.3385 20Z" stroke="white" stroke-width="1.2" stroke-linecap="round"/>
</svg>
