<svg width="24" height="24" viewBox="0 0 24 24" fill="none" xmlns="http://www.w3.org/2000/svg">
<path d="M3.54158 13.2079L10.5405 20.3805C11.3466 21.2065 12.6534 21.2065 13.4595 20.3805L20.4584 13.2079C22.5139 11.1015 22.5139 7.68626 20.4584 5.57983C18.403 3.47339 15.0704 3.47339 13.015 5.57983L12 6.62002L10.985 5.57983C8.92955 3.47339 5.59702 3.47339 3.54158 5.57983C1.48614 7.68626 1.48614 11.1015 3.54158 13.2079Z" fill="#D3F686"/>
<path d="M10.5405 20.3805L10.1111 20.7995L10.5405 20.3805ZM3.54158 13.2079L3.11215 13.6269L3.54158 13.2079ZM13.4595 20.3805L13.8889 20.7995L13.4595 20.3805ZM3.54158 5.57983L3.11215 5.16079L3.54158 5.57983ZM10.985 5.57983L11.4144 5.16079V5.16079L10.985 5.57983ZM20.4584 13.2079L20.029 12.7889L20.4584 13.2079ZM20.4584 5.57983L20.029 5.99886V5.99886L20.4584 5.57983ZM13.015 5.57983L13.4444 5.99886L13.015 5.57983ZM12 6.62002L11.5706 7.03905C11.6835 7.15477 11.8383 7.22002 12 7.22002C12.1617 7.22002 12.3165 7.15477 12.4294 7.03905L12 6.62002ZM10.5405 20.3805L10.9699 19.9614L3.97101 12.7889L3.54158 13.2079L3.11215 13.6269L10.1111 20.7995L10.5405 20.3805ZM13.4595 20.3805L13.0301 19.9614C12.4595 20.5462 11.5405 20.5462 10.9699 19.9614L10.5405 20.3805L10.1111 20.7995C11.1526 21.8668 12.8474 21.8668 13.8889 20.7995L13.4595 20.3805ZM3.54158 5.57983L3.97101 5.99886C5.791 4.13371 8.73557 4.13371 10.5556 5.99886L10.985 5.57983L11.4144 5.16079C9.12353 2.81307 5.40304 2.81307 3.11215 5.16079L3.54158 5.57983ZM3.54158 5.57983L3.11215 5.16079C0.829283 7.50029 0.829283 11.2874 3.11215 13.6269L3.54158 13.2079L3.97101 12.7889C2.143 10.9155 2.143 7.87223 3.97101 5.99886L3.54158 5.57983ZM20.4584 13.2079L20.029 12.7889L13.0301 19.9614L13.4595 20.3805L13.8889 20.7995L20.8878 13.6269L20.4584 13.2079ZM20.4584 5.57983L20.029 5.99886C21.857 7.87222 21.857 10.9155 20.029 12.7889L20.4584 13.2079L20.8878 13.6269C23.1707 11.2874 23.1707 7.50029 20.8878 5.16079L20.4584 5.57983ZM13.015 5.57983L13.4444 5.99886C15.2644 4.13371 18.209 4.13371 20.029 5.99886L20.4584 5.57983L20.8878 5.16079C18.597 2.81307 14.8765 2.81307 12.5856 5.16079L13.015 5.57983ZM12 6.62002L12.4294 7.03905L13.4444 5.99886L13.015 5.57983L12.5856 5.16079L11.5706 6.20098L12 6.62002ZM10.985 5.57983L10.5556 5.99886L11.5706 7.03905L12 6.62002L12.4294 6.20098L11.4144 5.16079L10.985 5.57983Z" fill="#D3F686"/>
</svg>
