<svg width="24" height="24" viewBox="0 0 24 24" fill="none" xmlns="http://www.w3.org/2000/svg">
<path d="M17.1429 13.0208C15.5649 13.0208 14.2857 14.3034 14.2857 15.8854C14.2857 17.4675 15.5649 18.75 17.1429 18.75C18.7208 18.75 20 17.4675 20 15.8854C20 14.3034 18.7208 13.0208 17.1429 13.0208ZM17.1429 13.0208V5M6.85714 10.7292C5.27919 10.7292 4 9.44665 4 7.86458C4 6.28252 5.27919 5 6.85714 5C8.4351 5 9.71429 6.28252 9.71429 7.86458C9.71429 9.44665 8.4351 10.7292 6.85714 10.7292ZM6.85714 10.7292V18.75" stroke="white" stroke-width="1.2" stroke-linecap="round"/>
</svg>
