<svg width="24" height="24" viewBox="0 0 24 24" fill="none" xmlns="http://www.w3.org/2000/svg">
<path d="M11.5 2.4C11.1686 2.4 10.9 2.66863 10.9 3C10.9 3.33137 11.1686 3.6 11.5 3.6V2.4ZM11.5 20.4C11.1686 20.4 10.9 20.6686 10.9 21C10.9 21.3314 11.1686 21.6 11.5 21.6V20.4ZM20.0095 18.543L19.4749 18.2706L20.0095 18.543ZM18.043 20.5095L18.3154 21.0441V21.0441L18.043 20.5095ZM18.043 3.49047L17.7706 4.02507V4.02508L18.043 3.49047ZM20.0095 5.45704L20.5441 5.18465L20.0095 5.45704ZM15.25 12.6C15.5814 12.6 15.85 12.3314 15.85 12C15.85 11.6686 15.5814 11.4 15.25 11.4V12.6ZM4 12L3.57574 11.5757C3.34142 11.8101 3.34142 12.1899 3.57574 12.4243L4 12ZM7.42426 9.42426C7.65858 9.18995 7.65858 8.81005 7.42426 8.57574C7.18995 8.34142 6.81005 8.34142 6.57574 8.57574L7.42426 9.42426ZM6.57574 15.4243C6.81005 15.6586 7.18995 15.6586 7.42426 15.4243C7.65858 15.1899 7.65858 14.8101 7.42426 14.5757L6.57574 15.4243ZM11.5 3V3.6H13.3V3V2.4H11.5V3ZM20.5 10.2H19.9V13.8H20.5H21.1V10.2H20.5ZM13.3 21V20.4H11.5V21V21.6H13.3V21ZM20.5 13.8H19.9C19.9 15.07 19.8995 15.9864 19.8407 16.7067C19.7824 17.42 19.6699 17.8879 19.4749 18.2706L20.0095 18.543L20.5441 18.8154C20.8396 18.2354 20.9724 17.5919 21.0367 16.8045C21.1005 16.024 21.1 15.0502 21.1 13.8H20.5ZM13.3 21V21.6C14.5502 21.6 15.524 21.6005 16.3044 21.5367C17.0919 21.4724 17.7354 21.3396 18.3154 21.0441L18.043 20.5095L17.7706 19.9749C17.3879 20.1699 16.92 20.2824 16.2067 20.3407C15.4864 20.3995 14.57 20.4 13.3 20.4V21ZM20.0095 18.543L19.4749 18.2706C19.101 19.0044 18.5044 19.601 17.7706 19.9749L18.043 20.5095L18.3154 21.0441C19.275 20.5552 20.0552 19.775 20.5441 18.8154L20.0095 18.543ZM13.3 3V3.6C14.57 3.6 15.4864 3.60047 16.2067 3.65932C16.92 3.71759 17.3879 3.83012 17.7706 4.02507L18.043 3.49047L18.3154 2.95587C17.7354 2.66035 17.0919 2.52764 16.3045 2.4633C15.524 2.39953 14.5502 2.4 13.3 2.4V3ZM20.5 10.2H21.1C21.1 8.94978 21.1005 7.97603 21.0367 7.19555C20.9724 6.40806 20.8396 5.76463 20.5441 5.18465L20.0095 5.45704L19.4749 5.72944C19.6699 6.11206 19.7824 6.57999 19.8407 7.29327C19.8995 8.01355 19.9 8.92998 19.9 10.2H20.5ZM18.043 3.49047L17.7706 4.02508C18.5044 4.39898 19.101 4.99561 19.4749 5.72944L20.0095 5.45704L20.5441 5.18465C20.0552 4.22502 19.275 3.44482 18.3154 2.95587L18.043 3.49047ZM15.25 12V11.4L4 11.4V12V12.6L15.25 12.6V12ZM4 12L4.42426 12.4243L7.42426 9.42426L7 9L6.57574 8.57574L3.57574 11.5757L4 12ZM4 12L3.57574 12.4243L6.57574 15.4243L7 15L7.42426 14.5757L4.42426 11.5757L4 12Z" fill="white"/>
</svg>
