<svg width="24" height="24" viewBox="0 0 24 24" fill="none" xmlns="http://www.w3.org/2000/svg">
<path d="M15.2433 19.1326C14.8829 19.6934 14.3891 20.1571 13.8055 20.4827C13.222 20.8083 12.5667 20.9857 11.8977 20.9992C11.2288 21.0126 10.5668 20.8618 9.97048 20.56C9.37414 20.2581 8.86183 19.8147 8.47893 19.2688M5.70876 11.2773C6.10547 10.7699 6.30382 10.5162 6.46369 10.2457C6.79533 9.68463 7.00981 9.06278 7.09428 8.41734C7.135 8.10622 7.135 7.78481 7.135 7.142V6.9863C7.135 5.5269 7.135 5.60383 7.36792 5.02586C7.69757 4.20789 8.34918 3.55965 9.17141 3.23172C9.7524 3 10.5016 3 12 3C13.4984 3 14.2476 3 14.8286 3.23172C15.6508 3.55965 16.3024 4.20789 16.6321 5.02586C16.865 5.60383 16.865 5.5269 16.865 6.9863V7.142C16.865 7.78481 16.865 8.10622 16.9057 8.41734C16.9902 9.06278 17.2047 9.68463 17.5363 10.2457C17.6962 10.5162 17.8945 10.7699 18.2912 11.2773C19.3098 12.58 19.8191 13.2314 19.939 13.7555C20.1933 14.8662 19.6344 16.0029 18.597 16.4852C18.1075 16.7127 17.278 16.7127 15.619 16.7127H8.381C6.72198 16.7127 5.89246 16.7127 5.40298 16.4852C4.36557 16.0029 3.80671 14.8662 4.06098 13.7555C4.18095 13.2314 4.69022 12.58 5.70876 11.2773Z" stroke="white" stroke-width="1.2" stroke-linecap="round"/>
</svg>
