<svg width="24" height="24" viewBox="0 0 24 24" fill="none" xmlns="http://www.w3.org/2000/svg">
<path d="M19.4952 11.4306C21.4623 9.46343 21.5066 6.31838 19.5941 4.40589C17.6816 2.49339 14.5366 2.53769 12.5694 4.50482C11.2511 5.8232 10.7964 7.67066 11.2156 9.32157L3.58415 16.953C3.22354 17.3136 3.01778 17.8006 3.0106 18.3105L3.0002 19.0492C2.98493 20.1328 3.86724 21.0151 4.95076 20.9998C5.84816 20.9872 6.61757 20.3557 6.80495 19.4779L6.84621 19.2847C7.00747 18.5293 7.59757 17.9392 8.35296 17.7779L8.80481 17.6815C9.5602 17.5202 10.1503 16.9301 10.3116 16.1747L10.408 15.7229C10.5693 14.9675 11.1594 14.3774 11.9148 14.2161L13.0418 13.9755C13.4115 13.8966 13.7506 13.7123 14.0179 13.4449L14.6784 12.7844C16.3293 13.2036 18.1768 12.7489 19.4952 11.4306Z" stroke="white" stroke-width="1.2"/>
<circle cx="17" cy="7" r="1" fill="white"/>
</svg>
