<svg width="24" height="24" viewBox="0 0 24 24" fill="none" xmlns="http://www.w3.org/2000/svg">
<path d="M17.3261 8.4C17.3261 11.3823 14.961 13.8 12.0435 13.8C9.12597 13.8 6.76087 11.3823 6.76087 8.4C6.76087 5.41766 9.12597 3 12.0435 3C14.961 3 17.3261 5.41766 17.3261 8.4Z" fill="white"/>
<path d="M12.0435 13.8C14.961 13.8 17.3261 11.3823 17.3261 8.4C17.3261 5.41766 14.961 3 12.0435 3C9.12597 3 6.76087 5.41766 6.76087 8.4C6.76087 11.3823 9.12597 13.8 12.0435 13.8ZM12.0435 13.8C5 13.8 5 17.0235 5 21M12.0435 13.8C19.087 13.9565 19.087 17.0235 19.087 21" stroke="white" stroke-width="1.2" stroke-linecap="round"/>
<path d="M5 18.6C5 15.8386 7.23858 13.6 10 13.6H14C16.7614 13.6 19 15.8386 19 18.6V21.6H5V18.6Z" fill="white"/>
</svg>
