<svg width="24" height="24" viewBox="0 0 24 24" fill="none" xmlns="http://www.w3.org/2000/svg">
<path d="M12 15.6C14.1746 15.6 15.9375 13.7868 15.9375 11.55C15.9375 9.31325 14.1746 7.5 12 7.5C9.82538 7.5 8.0625 9.31325 8.0625 11.55C8.0625 13.7868 9.82538 15.6 12 15.6ZM12 15.6C16.2228 15.6944 17.049 17.2011 17.2107 19.3391M12 15.6C7.77048 15.6 6.94836 17.1691 6.78856 19.3385M17.2107 19.3391C19.504 17.7079 21 15.0286 21 12C21 7.02944 16.9706 3 12 3C7.02944 3 3 7.02944 3 12C3 15.0283 4.49565 17.7073 6.78856 19.3385M17.2107 19.3391C15.7402 20.385 13.9419 21 12 21C10.0577 21 8.25917 20.3848 6.78856 19.3385" stroke="white" stroke-width="1.2"/>
</svg>
