<svg width="24" height="24" viewBox="0 0 24 24" fill="none" xmlns="http://www.w3.org/2000/svg">
<path d="M8.66667 18.4286V9.36927M19.5 5.81059V5.67032C19.5 3.93394 18.2581 2.65987 16.9761 3.081L10.2053 5.30517C9.30102 5.60221 8.66667 6.66977 8.66667 7.89449V9.36927M19.5 5.81059V15.8571M19.5 5.81059L8.66667 9.36927M8.66667 16.7143H7.27778C5.74365 16.7143 4.5 17.9935 4.5 19.5714C4.5 20.3604 5.12183 21 5.88889 21C7.42301 21 8.66667 19.7208 8.66667 18.1429V16.7143ZM19.5 14.1429H18.1111C16.577 14.1429 15.3333 15.422 15.3333 17C15.3333 17.789 15.9552 18.4286 16.7222 18.4286C18.2563 18.4286 19.5 17.1494 19.5 15.5714V14.1429Z" stroke="#65666A" stroke-width="1.2"/>
</svg>
