<svg width="24" height="24" viewBox="0 0 24 24" fill="none" xmlns="http://www.w3.org/2000/svg">
<path d="M10.375 20.4C10.0436 20.4 9.775 20.6686 9.775 21C9.775 21.3314 10.0436 21.6 10.375 21.6V20.4ZM14.625 21.6C14.9564 21.6 15.225 21.3314 15.225 21C15.225 20.6686 14.9564 20.4 14.625 20.4V21.6ZM12.5 17.2748H11.9V21H12.5H13.1V17.2748H12.5ZM10.375 21V21.6H14.625V21V20.4H10.375V21ZM7.80985 3.6073L7.96244 4.18758C10.9418 3.40414 14.0582 3.40414 17.0376 4.18758L17.1901 3.6073L17.3427 3.02703C14.1633 2.19099 10.8367 2.19099 7.65727 3.02703L7.80985 3.6073ZM18.1667 4.92282H18.7667C18.7667 4.04666 18.1979 3.25191 17.3427 3.02703L17.1901 3.6073L17.0376 4.18758C17.3302 4.26453 17.5667 4.55453 17.5667 4.92282H18.1667ZM6.83333 4.92282H7.43333C7.43333 4.55453 7.66981 4.26453 7.96244 4.18758L7.80985 3.6073L7.65727 3.02703C6.80208 3.25191 6.23333 4.04666 6.23333 4.92282H6.83333ZM21 7.9618H20.4V10.1969H21H21.6V7.9618H21ZM21 10.1969H20.4C20.4 10.9232 19.8476 11.4595 19.2292 11.4595V12.0595V12.6595C20.5667 12.6595 21.6 11.5281 21.6 10.1969H21ZM19.2292 6.0992V6.6992C19.8476 6.6992 20.4 7.23556 20.4 7.9618H21H21.6C21.6 6.63067 20.5667 5.4992 19.2292 5.4992V6.0992ZM4 10.1969H4.6V7.9618H4H3.4V10.1969H4ZM5.77083 12.0595V11.4595C5.1524 11.4595 4.6 10.9232 4.6 10.1969H4H3.4C3.4 11.5281 4.43325 12.6595 5.77083 12.6595V12.0595ZM5.77083 6.0992V5.4992C4.43325 5.4992 3.4 6.63067 3.4 7.9618H4H4.6C4.6 7.23556 5.1524 6.6992 5.77083 6.6992V6.0992ZM19.2292 6.0992V5.4992C18.6882 5.4992 18.1907 5.68794 17.7947 6.00079L18.1667 6.47159L18.5386 6.94238C18.7346 6.78759 18.9728 6.6992 19.2292 6.6992V6.0992ZM18.1667 4.92282H17.5667V6.47159H18.1667H18.7667V4.92282H18.1667ZM18.1667 6.47159H17.5667V11.3145H18.1667H18.7667V6.47159H18.1667ZM19.2292 12.0595V11.4595C18.9699 11.4595 18.729 11.3691 18.5317 11.2108L18.1563 11.6788L17.7808 12.1469C18.179 12.4663 18.6818 12.6595 19.2292 12.6595V12.0595ZM18.1667 11.3145H17.5667C17.5667 11.4254 17.5635 11.5354 17.5572 11.6445L18.1563 11.6788L18.7553 11.7132C18.7628 11.5812 18.7667 11.4483 18.7667 11.3145H18.1667ZM18.1563 11.6788L17.5572 11.6445C17.3948 14.4775 15.1676 16.6748 12.5 16.6748V17.2748V17.8748C15.859 17.8748 18.5597 15.1244 18.7553 11.7132L18.1563 11.6788ZM6.84375 11.6788L6.4683 11.2108C6.27105 11.3691 6.03014 11.4595 5.77083 11.4595V12.0595V12.6595C6.31821 12.6595 6.821 12.4663 7.2192 12.1469L6.84375 11.6788ZM6.83333 11.3145H6.23333C6.23333 11.4483 6.23717 11.5812 6.24473 11.7132L6.84375 11.6788L7.44276 11.6445C7.43651 11.5354 7.43333 11.4254 7.43333 11.3145H6.83333ZM6.84375 11.6788L6.24473 11.7132C6.44031 15.1244 9.14098 17.8748 12.5 17.8748V17.2748V16.6748C9.83244 16.6748 7.60519 14.4775 7.44276 11.6445L6.84375 11.6788ZM5.77083 6.0992V6.6992C6.02717 6.6992 6.26544 6.78759 6.46138 6.94238L6.83333 6.47159L7.20529 6.00079C6.8093 5.68794 6.3118 5.4992 5.77083 5.4992V6.0992ZM6.83333 11.3145H7.43333V6.47159H6.83333H6.23333V11.3145H6.83333ZM6.83333 6.47159H7.43333V4.92282H6.83333H6.23333V6.47159H6.83333Z" fill="white"/>
</svg>
