<svg width="24" height="24" viewBox="0 0 24 24" fill="none" xmlns="http://www.w3.org/2000/svg">
<path d="M3.4 17.7273C3.4 18.0586 3.66863 18.3273 4 18.3273C4.33137 18.3273 4.6 18.0586 4.6 17.7273H3.4ZM20.5 11.1818H19.9V17.7273H20.5H21.1V11.1818H20.5ZM4 17.7273H4.6V11.1818H4H3.4V17.7273H4ZM12.25 3V3.6C16.4797 3.6 19.9 6.99918 19.9 11.1818H20.5H21.1C21.1 6.32707 17.133 2.4 12.25 2.4V3ZM12.25 3V2.4C7.36698 2.4 3.4 6.32707 3.4 11.1818H4H4.6C4.6 6.99918 8.02032 3.6 12.25 3.6V3ZM8.95 16.0909H8.35V18.5455H8.95H9.55V16.0909H8.95ZM4 18.5455H4.6V16.0909H4H3.4V18.5455H4ZM6.475 21V20.4C5.43476 20.4 4.6 19.565 4.6 18.5455H4H3.4C3.4 20.2371 4.78143 21.6 6.475 21.6V21ZM8.95 18.5455H8.35C8.35 19.565 7.51524 20.4 6.475 20.4V21V21.6C8.16857 21.6 9.55 20.2371 9.55 18.5455H8.95ZM6.475 13.6364V14.2364C7.51524 14.2364 8.35 15.0714 8.35 16.0909H8.95H9.55C9.55 14.3992 8.16857 13.0364 6.475 13.0364V13.6364ZM6.475 13.6364V13.0364C4.78143 13.0364 3.4 14.3992 3.4 16.0909H4H4.6C4.6 15.0714 5.43476 14.2364 6.475 14.2364V13.6364ZM20.5 16.0909H19.9V18.5455H20.5H21.1V16.0909H20.5ZM15.55 18.5455H16.15V16.0909H15.55H14.95V18.5455H15.55ZM18.025 21V20.4C16.9848 20.4 16.15 19.565 16.15 18.5455H15.55H14.95C14.95 20.2371 16.3314 21.6 18.025 21.6V21ZM20.5 18.5455H19.9C19.9 19.565 19.0652 20.4 18.025 20.4V21V21.6C19.7186 21.6 21.1 20.2371 21.1 18.5455H20.5ZM18.025 13.6364V14.2364C19.0652 14.2364 19.9 15.0714 19.9 16.0909H20.5H21.1C21.1 14.3992 19.7186 13.0364 18.025 13.0364V13.6364ZM18.025 13.6364V13.0364C16.3314 13.0364 14.95 14.3992 14.95 16.0909H15.55H16.15C16.15 15.0714 16.9848 14.2364 18.025 14.2364V13.6364Z" fill="white"/>
</svg>
